<svg width="24" height="24" viewBox="0 0 24 24" fill="none" xmlns="http://www.w3.org/2000/svg">
<g clip-path="url(#clip0_259_20863)">
<path d="M20 13.6V12C20 11.5757 19.8314 11.1687 19.5314 10.8687C19.2313 10.5686 18.8243 10.4 18.4 10.4H2.4C1.97566 10.4 1.56869 10.5686 1.26863 10.8687C0.968574 11.1687 0.800003 11.5757 0.800003 12V21.6C0.800003 22.0244 0.968574 22.4314 1.26863 22.7314C1.56869 23.0315 1.97566 23.2 2.4 23.2H18.4C18.8243 23.2 19.2313 23.0315 19.5314 22.7314C19.8314 22.4314 20 22.0244 20 21.6V20M20 13.6H13.6C12.7513 13.6 11.9374 13.9372 11.3373 14.5373C10.7371 15.1374 10.4 15.9514 10.4 16.8C10.4 17.6487 10.7371 18.4627 11.3373 19.0628C11.9374 19.6629 12.7513 20 13.6 20H20M20 13.6C20.8487 13.6 21.6626 13.9372 22.2627 14.5373C22.8629 15.1374 23.2 15.9514 23.2 16.8C23.2 17.6487 22.8629 18.4627 22.2627 19.0628C21.6626 19.6629 20.8487 20 20 20M5.6 10.4V5.60005C5.6 4.32701 6.10572 3.10611 7.00589 2.20594C7.90607 1.30576 9.12696 0.800049 10.4 0.800049C11.673 0.800049 12.8939 1.30576 13.7941 2.20594C14.6943 3.10611 15.2 4.32701 15.2 5.60005V10.4M19.2 16.8H20.8M16 16.8H17.6M12.8 16.8H14.4" stroke="#9A6323"/>
</g>
<defs>
<clipPath id="clip0_259_20863">
<rect width="24" height="24" fill="white"/>
</clipPath>
</defs>
</svg>
