<svg width="25" height="25" viewBox="0 0 25 25" fill="none" xmlns="http://www.w3.org/2000/svg">
<g clip-path="url(#clip0_3_5628)">
<path d="M11.1152 0.366211V1.23613C11.1152 1.70859 11.4982 2.0916 11.9707 2.0916H13.0295C13.502 2.0916 13.885 1.70859 13.885 1.23613V0.366211H11.1152Z" stroke="white" stroke-width="0.878906" stroke-miterlimit="10" stroke-linecap="round" stroke-linejoin="round"/>
<path d="M5.12695 2.58594V1.77295C5.12695 0.996094 5.75684 0.366211 6.53369 0.366211H18.4663C19.2432 0.366211 19.873 0.996094 19.873 1.77295V5.92822M5.12695 5.92822V4.29492M19.873 19.0718V23.2271C19.873 24.0039 19.2432 24.6338 18.4663 24.6338H6.53369C5.75684 24.6338 5.12695 24.0039 5.12695 23.2271V19.0718M19.873 22.9084H5.12695M22.6001 7.47461V6.4165C22.6001 6.14648 22.3813 5.92822 22.1118 5.92822H2.88818C2.61865 5.92822 2.3999 6.14648 2.3999 6.4165V7.47461M2.3999 13.1748V11.8252" stroke="white" stroke-width="0.878906" stroke-miterlimit="10" stroke-linecap="round" stroke-linejoin="round"/>
<path d="M11.6455 19.0718H2.88818C2.61865 19.0718 2.3999 18.8535 2.3999 18.5835V17.5254M2.3999 16.0249V14.6753M2.3999 10.3247V8.9751M22.6001 13.1748V11.8252M13.3545 19.0718H22.1118C22.3813 19.0718 22.6001 18.8535 22.6001 18.5835V17.5254M22.6001 16.0249V14.6753M22.6001 10.3247V8.9751M19.873 8.30981V16.6901C19.873 16.8035 19.828 16.9122 19.7478 16.9924C19.6677 17.0726 19.5589 17.1176 19.4456 17.1176H7.48667C7.43053 17.1176 7.37494 17.1066 7.32307 17.0851C7.2712 17.0636 7.22407 17.0321 7.18438 16.9924L5.2522 15.0603C5.2125 15.0206 5.18101 14.9734 5.15953 14.9216C5.13805 14.8697 5.127 14.8141 5.127 14.758V8.30981C5.127 8.19644 5.17204 8.0877 5.25221 8.00753C5.33238 7.92736 5.44111 7.88232 5.55449 7.88232H19.4456C19.5589 7.88232 19.6677 7.92736 19.7478 8.00753C19.828 8.0877 19.873 8.19644 19.873 8.30981Z" stroke="white" stroke-width="0.878906" stroke-miterlimit="10" stroke-linecap="round" stroke-linejoin="round"/>
<path d="M15.0006 13.9567L15.5208 11.0746C15.5337 11.0071 15.6279 11.0008 15.6498 11.066L16.496 13.9342C16.5165 13.9953 16.6031 13.9949 16.6229 13.9336L17.4403 11.0664C17.4615 11.0011 17.5557 11.0064 17.5694 11.0737L18.1204 13.9567M13.6859 11.0202V13.9798M12.2735 11.3245C12.2735 11.3245 11.7424 10.8781 11.1162 11.0667C10.5411 11.2399 10.4607 11.903 10.8767 12.1742C10.8767 12.1742 11.2849 12.3563 11.7377 12.5233C12.8276 12.9253 12.3581 13.9798 11.4807 13.9798C11.0413 13.9798 10.6726 13.7873 10.4494 13.5411M6.8856 12.7483H9.15752V12.5736C9.15752 11.9445 8.64756 11.4346 8.01846 11.4346C7.38936 11.4346 6.87939 11.9445 6.87939 12.5754L6.8856 12.7483Z" stroke="white" stroke-width="0.878906" stroke-miterlimit="10" stroke-linecap="round" stroke-linejoin="round"/>
<path d="M6.88408 12.7072C6.88408 13.4149 7.45386 13.9798 8.15669 13.9798C8.44214 13.9798 8.67695 13.8858 8.85513 13.7271M21.2047 7.71863V8.73093C21.2047 8.79568 21.2304 8.85778 21.2762 8.90357C21.322 8.94935 21.3841 8.97507 21.4488 8.97507H23.7512C23.816 8.97507 23.8781 8.94935 23.9239 8.90357C23.9696 8.85778 23.9954 8.79568 23.9954 8.73093V7.71863C23.9954 7.65388 23.9696 7.59178 23.9239 7.54599C23.8781 7.50021 23.816 7.47449 23.7512 7.47449H21.4488C21.3841 7.47449 21.322 7.50021 21.2762 7.54599C21.2304 7.59178 21.2047 7.65388 21.2047 7.71863ZM21.2047 10.5688V11.5811C21.2047 11.6458 21.2304 11.7079 21.2762 11.7537C21.322 11.7995 21.3841 11.8252 21.4488 11.8252H23.7512C23.816 11.8252 23.8781 11.7995 23.9239 11.7537C23.9696 11.7079 23.9954 11.6458 23.9954 11.5811V10.5688C23.9954 10.504 23.9696 10.4419 23.9239 10.3961C23.8781 10.3504 23.816 10.3246 23.7512 10.3246H21.4488C21.3841 10.3246 21.322 10.3504 21.2762 10.3961C21.2304 10.4419 21.2047 10.504 21.2047 10.5688ZM21.2047 13.419V14.4313C21.2047 14.496 21.2304 14.5581 21.2762 14.6039C21.322 14.6497 21.3841 14.6754 21.4488 14.6754H23.7512C23.816 14.6754 23.8781 14.6497 23.9239 14.6039C23.9696 14.5581 23.9954 14.496 23.9954 14.4313V13.419C23.9954 13.3542 23.9696 13.2921 23.9239 13.2463C23.8781 13.2006 23.816 13.1748 23.7512 13.1748H21.4488C21.3841 13.1748 21.322 13.2006 21.2762 13.2463C21.2304 13.2921 21.2047 13.3542 21.2047 13.419ZM21.2047 16.2691V17.2814C21.2047 17.3462 21.2304 17.4083 21.2762 17.4541C21.322 17.4998 21.3841 17.5256 21.4488 17.5256H23.7512C23.816 17.5256 23.8781 17.4998 23.9239 17.4541C23.9696 17.4083 23.9954 17.3462 23.9954 17.2814V16.2691C23.9954 16.2044 23.9696 16.1423 23.9239 16.0965C23.8781 16.0507 23.816 16.025 23.7512 16.025H21.4488C21.3841 16.025 21.322 16.0507 21.2762 16.0965C21.2304 16.1423 21.2047 16.2044 21.2047 16.2691ZM1.00464 7.71863V8.73093C1.00464 8.79568 1.03036 8.85778 1.07615 8.90357C1.12193 8.94935 1.18403 8.97507 1.24878 8.97507H3.55117C3.61592 8.97507 3.67802 8.94935 3.72381 8.90357C3.76959 8.85778 3.79531 8.79568 3.79531 8.73093V7.71863C3.79531 7.65388 3.76959 7.59178 3.72381 7.54599C3.67802 7.50021 3.61592 7.47449 3.55117 7.47449H1.24878C1.18403 7.47449 1.12193 7.50021 1.07615 7.54599C1.03036 7.59178 1.00464 7.65388 1.00464 7.71863ZM1.00464 10.5688V11.5811C1.00464 11.6458 1.03036 11.7079 1.07615 11.7537C1.12193 11.7995 1.18403 11.8252 1.24878 11.8252H3.55117C3.61592 11.8252 3.67802 11.7995 3.72381 11.7537C3.76959 11.7079 3.79531 11.6458 3.79531 11.5811V10.5688C3.79531 10.504 3.76959 10.4419 3.72381 10.3961C3.67802 10.3504 3.61592 10.3246 3.55117 10.3246H1.24878C1.18403 10.3246 1.12193 10.3504 1.07615 10.3961C1.03036 10.4419 1.00464 10.504 1.00464 10.5688ZM1.00464 13.419V14.4313C1.00464 14.496 1.03036 14.5581 1.07615 14.6039C1.12193 14.6497 1.18403 14.6754 1.24878 14.6754H3.55117C3.61592 14.6754 3.67802 14.6497 3.72381 14.6039C3.76959 14.5581 3.79531 14.496 3.79531 14.4313V13.419C3.79531 13.3542 3.76959 13.2921 3.72381 13.2463C3.67802 13.2006 3.61592 13.1748 3.55117 13.1748H1.24878C1.18403 13.1748 1.12193 13.2006 1.07615 13.2463C1.03036 13.2921 1.00464 13.3542 1.00464 13.419ZM1.00464 16.2691V17.2814C1.00464 17.3462 1.03036 17.4083 1.07615 17.4541C1.12193 17.4998 1.18403 17.5256 1.24878 17.5256H3.55117C3.61592 17.5256 3.67802 17.4998 3.72381 17.4541C3.76959 17.4083 3.79531 17.3462 3.79531 17.2814V16.2691C3.79531 16.2044 3.76959 16.1423 3.72381 16.0965C3.67802 16.0507 3.61592 16.025 3.55117 16.025H1.24878C1.18403 16.025 1.12193 16.0507 1.07615 16.0965C1.03036 16.1423 1.00464 16.2044 1.00464 16.2691Z" stroke="white" stroke-width="0.878906" stroke-miterlimit="10" stroke-linecap="round" stroke-linejoin="round"/>
</g>
<defs>
<clipPath id="clip0_3_5628">
<rect width="25" height="25" fill="white"/>
</clipPath>
</defs>
</svg>
