<svg width="24" height="24" viewBox="0 0 24 24" fill="none" xmlns="http://www.w3.org/2000/svg">
<path d="M22.7021 12C23.4189 12 24.0073 11.4171 23.9299 10.7045C23.6361 7.99832 22.4282 5.45768 20.4853 3.51472C18.2348 1.26428 15.1826 2.40279e-07 12 0C8.8174 -2.40279e-07 5.76516 1.26428 3.51472 3.51472C1.57176 5.45768 0.363884 7.99832 0.0700935 10.7045C-0.00727221 11.4171 0.581101 12 1.29793 12C2.01475 12 2.58663 11.4161 2.68525 10.7061C2.96527 8.68999 3.89448 6.80605 5.35026 5.35026C7.11388 3.58664 9.50587 2.59585 12 2.59585C14.4941 2.59585 16.8861 3.58664 18.6497 5.35026C20.1055 6.80605 21.0347 8.68999 21.3148 10.7061C21.4134 11.4161 21.9853 12 22.7021 12Z" fill="#D9D9D9"/>
</svg>
