<svg width="21" height="21" viewBox="0 0 21 21" fill="none" xmlns="http://www.w3.org/2000/svg">
<path d="M18.375 1.75H15.75C15.505 1.75 15.2862 1.84625 15.1287 2.00375L13.3088 3.8325L12.6087 3.14125C12.25 2.8 11.8125 2.625 11.375 2.625H6.125C5.6875 2.625 5.25 2.8 4.89125 3.14125L4.01625 4.01625C3.675 4.375 3.5 4.8125 3.5 5.25V16.625C3.5 17.0891 3.68437 17.5342 4.01256 17.8624C4.34075 18.1906 4.78587 18.375 5.25 18.375H14C14.4641 18.375 14.9092 18.1906 15.2374 17.8624C15.5656 17.5342 15.75 17.0891 15.75 16.625V7C15.75 6.5625 15.575 6.125 15.2337 5.76625L14.5425 5.06625L16.1087 3.5H18.375V1.75ZM11.375 4.375V6.125H6.125V4.375H11.375ZM11.0163 9.625L12.7663 7.875H14V9.10875L12.25 10.8587V13.6413L14 15.3913V16.625H12.7663L11.0163 14.875H8.23375L6.48375 16.625H5.25V15.3913L7 13.6413V10.8587L5.25 9.10875V7.875H6.48375L8.23375 9.625H11.0163ZM10.5 11.375H8.75V13.125H10.5V11.375Z" fill="white"/>
</svg>
