<svg width="24" height="25" viewBox="0 0 24 25" fill="none" xmlns="http://www.w3.org/2000/svg">
<path fill-rule="evenodd" clip-rule="evenodd" d="M12 22.9341C6.477 22.9341 2 18.4571 2 12.9341C2 7.41108 6.477 2.93408 12 2.93408C17.523 2.93408 22 7.41108 22 12.9341C22 18.4571 17.523 22.9341 12 22.9341ZM12 20.9341C14.1217 20.9341 16.1566 20.0912 17.6569 18.5909C19.1571 17.0906 20 15.0558 20 12.9341C20 10.8124 19.1571 8.77752 17.6569 7.27723C16.1566 5.77694 14.1217 4.93408 12 4.93408C9.87827 4.93408 7.84344 5.77694 6.34315 7.27723C4.84285 8.77752 4 10.8124 4 12.9341C4 15.0558 4.84285 17.0906 6.34315 18.5909C7.84344 20.0912 9.87827 20.9341 12 20.9341ZM11 16.9341H13V18.9341H11V16.9341ZM11 14.9421C11 14.9421 13 14.9341 13 14.9421C13 13.9401 16 12.9341 16 10.9341C16 8.72408 14.227 6.93408 12.009 6.93408C11.483 6.9329 10.9618 7.03549 10.4755 7.23598C9.98916 7.43647 9.54714 7.73092 9.17475 8.10247C8.80236 8.47402 8.50692 8.91538 8.30534 9.40127C8.10376 9.88716 8 10.408 8 10.9341H10C10 9.83408 10.9 8.93408 12 8.93408C13.1 8.93408 14 9.83408 14 10.9341C14 11.8341 11 13.3011 11 14.9421Z" fill="#9A6323"/>
</svg>
