<svg width="34" height="30" viewBox="0 0 34 30" fill="none" xmlns="http://www.w3.org/2000/svg">
<path fill-rule="evenodd" clip-rule="evenodd" d="M13.8068 23.9051C13.2279 23.7776 12.6612 23.6076 12.1068 23.3951C11.5662 23.1922 11.0494 22.931 10.5655 22.6159C9.72376 22.0819 9.02558 21.3499 8.53193 20.4838C8.03829 19.6178 7.76419 18.6441 7.73358 17.6477C7.66899 15.6408 8.29397 13.6723 9.50441 12.0703C10.2758 10.9954 11.2765 10.1056 12.4341 9.46502C13.6055 8.84529 14.8922 8.47394 16.2137 8.37418C17.9707 8.27257 19.7179 8.69809 21.2313 9.59616C22.7447 10.4942 23.9554 11.8239 24.7081 13.4147C25.1569 14.1665 25.4488 15.0015 25.5662 15.8693C25.6835 16.737 25.6239 17.6196 25.3909 18.4636C25.1579 19.3077 24.7564 20.0959 24.2105 20.7805C23.6646 21.4652 22.9857 22.0322 22.2147 22.4474C22.1509 22.4839 22.0949 22.5329 22.0503 22.5915C22.0056 22.65 21.973 22.7168 21.9546 22.7881C21.9361 22.8594 21.932 22.9336 21.9427 23.0065C21.9533 23.0793 21.9784 23.1493 22.0164 23.2124C22.0516 23.2758 22.0993 23.3314 22.1565 23.3759C22.2138 23.4205 22.2794 23.453 22.3496 23.4715C22.4197 23.49 22.4928 23.4942 22.5646 23.4837C22.6364 23.4733 22.7053 23.4484 22.7672 23.4107C27.3119 20.9174 27.8361 16.4591 26.1233 12.7347C25.2628 10.8404 23.8649 9.24047 22.1033 8.13339C20.3417 7.0263 18.2938 6.46079 16.2137 6.50702C14.6197 6.61231 13.0683 7.06642 11.6691 7.83727C9.93865 8.8129 8.52584 10.2663 7.59956 12.0236C6.67328 13.781 6.27274 15.7679 6.44583 17.7469C6.51339 18.9296 6.86518 20.0785 7.47136 21.0963C8.07755 22.1141 8.92025 22.9707 9.928 23.5934C10.4947 23.9202 11.0897 24.1847 11.713 24.3868C12.3127 24.5945 12.9257 24.7551 13.5518 24.8684C13.6832 24.8936 13.8192 24.8661 13.9305 24.7919C14.0418 24.7177 14.1195 24.6027 14.1468 24.4718C14.1697 24.352 14.1477 24.2281 14.085 24.1235C14.0223 24.019 13.9233 23.9412 13.8068 23.9051Z" fill="white"/>
<path fill-rule="evenodd" clip-rule="evenodd" d="M16.8654 21.81C17.5055 21.6836 18.1022 21.3944 18.598 20.9704C19.0938 20.5463 19.4719 20.0016 19.6959 19.3889C19.7326 19.3252 19.7559 19.2547 19.7643 19.1817C19.7727 19.1087 19.7661 19.0348 19.7449 18.9645C19.7236 18.8941 19.6882 18.8289 19.6408 18.7727C19.5934 18.7166 19.535 18.6708 19.4693 18.638C19.4056 18.6014 19.3351 18.5781 19.2621 18.5697C19.1891 18.5612 19.1152 18.5679 19.0448 18.5891C18.9745 18.6103 18.9093 18.6457 18.8531 18.6931C18.797 18.7405 18.7511 18.7989 18.7184 18.8647C18.4427 19.2855 18.0475 19.6143 17.5835 19.8087C17.1195 20.003 16.6079 20.0542 16.1146 19.9555C15.8233 19.9217 15.5376 19.8502 15.2646 19.743C14.5312 19.509 13.898 19.0349 13.4668 18.3972C13.4435 18.3288 13.4051 18.2664 13.3544 18.2148C13.3037 18.1633 13.2421 18.1238 13.174 18.0993C13.106 18.0748 13.0333 18.0659 12.9614 18.0734C12.8894 18.0808 12.8201 18.1043 12.7585 18.1422C12.6385 18.195 12.5442 18.2933 12.4964 18.4154C12.4486 18.5375 12.4512 18.6736 12.5035 18.7939C12.7996 19.8564 13.481 20.7715 14.416 21.358C14.8495 21.6102 15.3312 21.7689 15.8313 21.8241C16.176 21.8713 16.5207 21.8666 16.8654 21.81Z" fill="white"/>
<path fill-rule="evenodd" clip-rule="evenodd" d="M33.8385 15.6375C33.7511 15.2616 33.6129 14.8994 33.4277 14.5608C33.0931 13.9662 32.6384 13.4479 32.0926 13.0386C31.5467 12.6293 30.9217 12.3382 30.2572 12.1836C30.1483 11.351 29.9778 10.5275 29.7472 9.72005C29.2228 7.90878 28.3087 6.23407 27.069 4.81325C25.8293 3.39242 24.2939 2.25985 22.5703 1.49488C20.7474 0.805653 18.8033 0.494197 16.8563 0.579433C14.9092 0.66467 12.9999 1.14482 11.2441 1.99071C9.4382 2.72948 7.84166 3.90096 6.59509 5.40198C5.34851 6.90301 4.49015 8.68753 4.09559 10.5984C4.09559 10.9384 4.09559 11.2784 4.01059 11.6184C3.29057 11.7528 2.60954 12.0459 2.017 12.4764C1.42446 12.907 0.935308 13.4642 0.585092 14.1075C0.399981 14.4475 0.263037 14.8064 0.174259 15.1841C-0.0573947 15.9692 -0.0573947 16.8045 0.174259 17.5896C0.385278 18.1815 0.740443 18.7116 1.20767 19.1318C1.67489 19.552 2.23945 19.8492 2.85034 19.9965C3.13084 20.0853 3.4189 20.1467 3.71451 20.1807C4.00162 20.209 4.2892 20.209 4.57726 20.1807C4.70696 20.1762 4.83118 20.1273 4.92917 20.0422C5.02715 19.9571 5.09296 19.841 5.11559 19.7132C5.17306 19.7408 5.236 19.7552 5.29976 19.7552C5.36352 19.7552 5.42646 19.7408 5.48393 19.7132C5.57065 19.6741 5.64383 19.6101 5.69426 19.5295C5.74468 19.4488 5.77008 19.355 5.76726 19.2599C5.43566 17.8651 5.22708 16.4439 5.14393 15.0127C5.06459 13.6145 5.16376 12.2105 5.44143 10.8364C5.88633 9.20725 6.71467 7.70825 7.85724 6.46464C8.9998 5.22103 10.4234 4.26892 12.0091 3.68788C13.5458 2.95174 15.2145 2.53109 16.9165 2.45079C18.6186 2.3705 20.3195 2.63218 21.9187 3.22038C23.4242 3.85439 24.7759 4.80444 25.8824 6.00622C26.9888 7.208 27.8242 8.63347 28.3319 10.1861C29.4014 13.4195 29.3062 16.9251 28.0628 20.0957C28.0352 20.1636 28.0215 20.2362 28.0223 20.3094C28.0231 20.3826 28.0385 20.4549 28.0675 20.5222C28.0965 20.5894 28.1385 20.6502 28.1912 20.701C28.2439 20.7518 28.3062 20.7917 28.3744 20.8182C28.4618 20.8474 28.5562 20.8474 28.6436 20.8182C28.2501 21.6415 27.7755 22.4236 27.2269 23.1529C26.7028 23.8626 26.0908 24.5001 25.4008 25.0512C24.3419 26.0056 22.9755 26.548 21.5503 26.5798C21.4874 26.4655 21.3859 26.3772 21.2641 26.3305C21.1422 26.2838 21.0077 26.2818 20.8845 26.3248C20.7457 26.3814 20.6349 26.4907 20.5765 26.6288C20.5181 26.7668 20.5168 26.9224 20.5728 27.0615C20.5728 27.2456 20.5728 27.3731 20.3887 27.5006C20.162 27.6706 19.8928 27.7797 19.6109 27.8109C19.2153 27.8862 18.8076 27.8668 18.4209 27.7542C18.0293 27.658 17.6627 27.4793 17.3457 27.23C17.1048 27.06 16.9207 26.9467 17.0057 26.7767C17.113 26.5706 17.2812 26.4024 17.4873 26.295L18.4507 25.9834C18.7225 25.9398 18.9971 25.9162 19.2723 25.9125H20.1493C20.2749 25.933 20.4035 25.903 20.5071 25.8289C20.6106 25.7548 20.6806 25.6428 20.7018 25.5173C20.7141 25.4531 20.7135 25.3871 20.7002 25.3231C20.6869 25.2591 20.6611 25.1984 20.6242 25.1444C20.5874 25.0904 20.5402 25.0442 20.4854 25.0086C20.4307 24.9729 20.3694 24.9484 20.3051 24.9365L18.4209 24.6248C18.181 24.6044 17.9398 24.6044 17.6998 24.6248C17.4452 24.6448 17.1934 24.6923 16.949 24.7665C16.5477 24.8669 16.1787 25.0679 15.8765 25.3505C15.5744 25.633 15.3492 25.9878 15.2221 26.3815C15.1293 26.8296 15.1808 27.2956 15.3691 27.7127C15.5574 28.1298 15.8729 28.4766 16.2704 28.7034C16.8371 29.0774 17.4803 29.3182 18.1532 29.4117C18.7949 29.4755 19.4438 29.3933 20.0501 29.1709C20.6309 28.9513 21.1253 28.5546 21.4668 28.0375C21.5272 27.9053 21.5744 27.7684 21.6084 27.6267C23.0754 27.8221 24.566 27.5337 25.8542 26.805C27.0286 26.1243 28.0048 25.1486 28.6861 23.9745C29.3043 22.9587 29.7401 21.8425 29.9738 20.6765H30.3705C30.6633 20.6293 30.9513 20.5632 31.2347 20.4782C31.8247 20.3141 32.366 20.0092 32.8122 19.5897C33.2583 19.1702 33.5959 18.6487 33.796 18.0699C34.0522 17.2809 34.067 16.4349 33.8385 15.6375ZM3.88309 18.978C3.68037 18.909 3.48172 18.8286 3.28809 18.7371C2.9571 18.5756 2.66677 18.3416 2.43867 18.0524C2.21058 17.7632 2.05059 17.4264 1.97059 17.0669C1.87584 16.5998 1.87633 16.1185 1.97201 15.6516C2.07069 15.071 2.29223 14.5181 2.62181 14.03C2.95139 13.5418 3.3814 13.1297 3.88309 12.8211C3.86893 13.5965 3.89726 14.37 3.96809 15.1416C4.10976 16.5356 4.37468 17.9155 4.76143 19.2613C4.67643 19.2613 4.61976 19.1621 4.52059 19.1621L3.88309 18.978ZM30.7813 19.1763C28.6422 20.2105 30.6397 17.846 30.3988 13.3439C31.2929 13.9962 31.8972 14.9715 32.0833 16.0625C32.1768 16.53 32.1768 17.0116 32.0833 17.4791C32.0035 17.848 31.8391 18.1933 31.6031 18.4879C31.3671 18.7824 31.0659 19.0181 30.7233 19.1763H30.7813Z" fill="white"/>
<path fill-rule="evenodd" clip-rule="evenodd" d="M12.5191 12.9048C12.2629 12.8984 12.008 12.9416 11.7683 13.0323C11.2299 13.2448 10.7483 13.5734 10.3516 13.9956C10.2413 14.0656 10.163 14.1762 10.1339 14.3035C10.1047 14.4309 10.1269 14.5646 10.1958 14.6756C10.3941 15.0298 13.0291 14.6756 13.5391 14.6756C13.7648 14.685 13.9863 14.7228 14.2035 14.7889C14.3322 14.864 14.4849 14.8868 14.6299 14.8525C14.7749 14.8183 14.9012 14.7295 14.9827 14.6048C15.057 14.4782 15.0794 14.3278 15.045 14.1851C15.0107 14.0424 14.9223 13.9186 14.7985 13.8398C14.3747 13.4175 13.8469 13.1145 13.2685 12.9614C13.0232 12.9008 12.7708 12.8816 12.5191 12.9048ZM22.7829 14.6742C22.8504 14.5614 22.8705 14.4265 22.8386 14.299C22.8067 14.1715 22.7255 14.0618 22.6129 13.9942C22.2228 13.5667 21.7374 13.2371 21.1962 13.0323C20.9565 12.9416 20.7015 12.8984 20.4454 12.9048C20.1889 12.8906 19.9297 12.9189 19.6818 12.9898C19.1052 13.1456 18.5782 13.4488 18.1518 13.8681C18.0306 13.9494 17.9454 14.0743 17.914 14.2168C17.8826 14.3593 17.9074 14.5084 17.9832 14.6331C18.0622 14.7607 18.1886 14.8518 18.3347 14.8863C18.4808 14.9209 18.6346 14.896 18.7624 14.8173C18.9786 14.7511 19.2006 14.7134 19.4282 14.7039C21.0262 14.5764 22.4854 15.1842 22.7829 14.6742Z" fill="white"/>
</svg>
