<svg width="21" height="20" viewBox="0 0 21 20" fill="none" xmlns="http://www.w3.org/2000/svg">
<circle cx="10.4295" cy="9.76393" r="8.62428" fill="#9A6323" stroke="#050915" stroke-width="2"/>
<path d="M13.6803 5.91703H12.5799C12.4429 5.90591 12.3057 5.93551 12.1855 6.0021C12.0654 6.06869 11.9675 6.1693 11.9043 6.29131H8.75477C7.3924 6.29131 6.58022 7.10349 6.58022 8.46586V11.6023C6.57207 11.9676 6.64359 12.3304 6.78981 12.6653C7.11169 13.3764 7.80036 13.7769 8.75477 13.7769H11.8912C13.2536 13.7769 14.0658 12.9647 14.0658 11.6023V8.45276C14.1878 8.38956 14.2884 8.29172 14.355 8.17153C14.4216 8.05134 14.4512 7.91415 14.44 7.77719V6.67682C14.4495 6.57468 14.4363 6.47172 14.4015 6.37524C14.3666 6.27877 14.311 6.19115 14.2385 6.11862C14.1659 6.04609 14.0783 5.99043 13.9818 5.95559C13.8854 5.92074 13.7824 5.90758 13.6803 5.91703ZM13.5043 10.2624L13.4557 10.2212C13.3067 10.0996 13.1203 10.0331 12.928 10.0331C12.7356 10.0331 12.5492 10.0996 12.4002 10.2212L10.8432 11.5574C10.6943 11.6791 10.5078 11.7455 10.3155 11.7455C10.1232 11.7455 9.93674 11.6791 9.78777 11.5574L9.66052 11.4526C9.52317 11.3391 9.35301 11.2728 9.17512 11.2634C8.99722 11.2539 8.821 11.3019 8.67243 11.4002L7.27263 12.3396C7.18284 12.1043 7.13839 11.8541 7.14163 11.6023V8.46586C7.14163 7.4104 7.6993 6.85273 8.75477 6.85273H11.8201V7.77719C11.8106 7.87933 11.8238 7.98229 11.8587 8.07877C11.8935 8.17524 11.9492 8.26286 12.0217 8.33539C12.0942 8.40792 12.1818 8.46358 12.2783 8.49842C12.3748 8.53327 12.4777 8.54643 12.5799 8.53698H13.5043V10.2624ZM12.9452 8.00213C12.9295 8.01655 12.91 8.02628 12.889 8.0302L12.5005 8.08522C12.4881 8.08707 12.4756 8.08795 12.4631 8.08784C12.4109 8.08895 12.3604 8.0693 12.3228 8.0332C12.3009 8.00977 12.2848 7.98157 12.2758 7.95084C12.2668 7.9201 12.265 7.88769 12.2707 7.85617L12.3257 7.46804C12.3299 7.44715 12.3396 7.42776 12.3538 7.4119L12.9901 6.77563C12.9998 6.80332 13.0114 6.83177 13.0253 6.86283C13.0391 6.8939 13.0537 6.91897 13.0694 6.9463C13.0814 6.96688 13.0945 6.98676 13.1087 7.00581C13.1218 7.02514 13.1359 7.04375 13.151 7.06157C13.1551 7.06816 13.16 7.07419 13.1656 7.07954C13.1976 7.11743 13.2326 7.15261 13.2704 7.18471C13.2757 7.19038 13.2814 7.19551 13.2876 7.20006C13.3075 7.21615 13.3277 7.23224 13.3449 7.24347C13.3658 7.25889 13.3874 7.27326 13.4097 7.28651C13.437 7.30223 13.465 7.31721 13.4946 7.33105C13.5242 7.3449 13.5526 7.35613 13.5803 7.36586L12.9452 8.00213ZM13.8412 7.10574L13.7199 7.227C13.7122 7.23482 13.7017 7.23926 13.6907 7.23936C13.6865 7.23974 13.6822 7.23974 13.678 7.23936C13.5447 7.20068 13.4233 7.12894 13.3252 7.03078C13.227 6.93263 13.1553 6.81125 13.1166 6.67794C13.115 6.67078 13.1155 6.66334 13.1178 6.65641C13.1202 6.64948 13.1244 6.64333 13.1301 6.63864L13.2532 6.5155C13.2872 6.46917 13.3316 6.43149 13.3829 6.40551C13.4342 6.37954 13.4909 6.36601 13.5483 6.36601C13.6058 6.36601 13.6625 6.37954 13.7137 6.40551C13.765 6.43149 13.8094 6.46917 13.8434 6.5155C13.8874 6.55264 13.9234 6.59834 13.9491 6.64982C13.9748 6.70129 13.9898 6.75747 13.9932 6.81493C13.9887 6.87112 13.9729 6.92584 13.9468 6.9758C13.9207 7.02577 13.8848 7.06996 13.8412 7.10574ZM10.0891 8.53698C10.0891 8.71279 10.0369 8.88465 9.93926 9.03083C9.84158 9.17701 9.70275 9.29094 9.54033 9.35822C9.3779 9.4255 9.19917 9.4431 9.02674 9.4088C8.85431 9.37451 8.69592 9.28985 8.5716 9.16553C8.44729 9.04121 8.36263 8.88283 8.32833 8.71039C8.29403 8.53796 8.31163 8.35923 8.37891 8.19681C8.44619 8.03438 8.56013 7.89555 8.70631 7.79788C8.85249 7.7002 9.02435 7.64807 9.20016 7.64807C9.43585 7.64827 9.66183 7.74198 9.82849 7.90864C9.99515 8.0753 10.0889 8.30128 10.0891 8.53698Z" fill="#050915"/>
</svg>
