<svg width="24" height="24" viewBox="0 0 24 24" fill="none" xmlns="http://www.w3.org/2000/svg">
<path fill-rule="evenodd" clip-rule="evenodd" d="M4.20543 5.73488C6.03836 3.45739 8.84899 2 12 2C12.4867 2 12.9651 2.03476 13.4331 2.10192L14.2835 3.80256L11.0288 7.0572L7.5288 7.5572L5.81345 9.27255L4.20543 5.73488ZM2.9348 7.77272C2.33501 9.05675 2 10.4892 2 12C2 16.926 5.56177 21.0201 10.2504 21.8475L10.7985 20.9593L7.75293 16.7293L9.83213 14.0341L8.84357 13.5399L5.25369 14.1381L4.55155 11.3296L2.9348 7.77272ZM6.60745 11.3069L6.74616 11.8619L9.15629 11.4601L11.1635 12.4637L14.7765 11.9619L21.2725 15.7513C21.7417 14.5929 22 13.3267 22 12C22 7.91639 19.5523 4.40448 16.044 2.85141L16.7169 4.19747L11.9716 8.94281L8.47161 9.4428L6.60745 11.3069ZM20.3385 17.5219C18.6365 20.0869 15.7825 21.8213 12.5145 21.9869L13.2015 20.874L10.2471 16.7707L12.1137 14.3509L14.3664 14.0381L20.3385 17.5219ZM12 0C5.37259 0 0 5.37259 0 12C0 18.6275 5.37259 24 12 24C18.6275 24 24 18.6275 24 12C24 5.37259 18.6275 0 12 0Z" fill="#9A6323"/>
</svg>
