<svg width="22" height="22" viewBox="0 0 22 22" fill="none" xmlns="http://www.w3.org/2000/svg">
<g clip-path="url(#clip0_259_21028)">
<path d="M18.3333 5.5V11H3.66663M11 5.5V16.5M3.66663 5.5V16.5" stroke="white" stroke-width="2" stroke-linecap="round" stroke-linejoin="round"/>
<path d="M20.1666 3.66659C20.1666 4.15282 19.9735 4.61913 19.6297 4.96295C19.2859 5.30676 18.8195 5.49992 18.3333 5.49992C17.8471 5.49992 17.3808 5.30676 17.037 4.96295C16.6931 4.61913 16.5 4.15282 16.5 3.66659C16.5 3.18036 16.6931 2.71404 17.037 2.37022C17.3808 2.02641 17.8471 1.83325 18.3333 1.83325C18.8195 1.83325 19.2859 2.02641 19.6297 2.37022C19.9735 2.71404 20.1666 3.18036 20.1666 3.66659ZM12.8333 3.66659C12.8333 4.15282 12.6402 4.61913 12.2963 4.96295C11.9525 5.30676 11.4862 5.49992 11 5.49992C10.5137 5.49992 10.0474 5.30676 9.70362 4.96295C9.3598 4.61913 9.16665 4.15282 9.16665 3.66659C9.16665 3.18036 9.3598 2.71404 9.70362 2.37022C10.0474 2.02641 10.5137 1.83325 11 1.83325C11.4862 1.83325 11.9525 2.02641 12.2963 2.37022C12.6402 2.71404 12.8333 3.18036 12.8333 3.66659ZM5.49998 3.66659C5.49998 4.15282 5.30683 4.61913 4.96301 4.96295C4.61919 5.30676 4.15288 5.49992 3.66665 5.49992C3.18042 5.49992 2.7141 5.30676 2.37028 4.96295C2.02647 4.61913 1.83331 4.15282 1.83331 3.66659C1.83331 3.18036 2.02647 2.71404 2.37028 2.37022C2.7141 2.02641 3.18042 1.83325 3.66665 1.83325C4.15288 1.83325 4.61919 2.02641 4.96301 2.37022C5.30683 2.71404 5.49998 3.18036 5.49998 3.66659ZM12.8333 18.3333C12.8333 18.8195 12.6402 19.2858 12.2963 19.6296C11.9525 19.9734 11.4862 20.1666 11 20.1666C10.5137 20.1666 10.0474 19.9734 9.70362 19.6296C9.3598 19.2858 9.16665 18.8195 9.16665 18.3333C9.16665 17.847 9.3598 17.3807 9.70362 17.0369C10.0474 16.6931 10.5137 16.4999 11 16.4999C11.4862 16.4999 11.9525 16.6931 12.2963 17.0369C12.6402 17.3807 12.8333 17.847 12.8333 18.3333ZM5.49998 18.3333C5.49998 18.8195 5.30683 19.2858 4.96301 19.6296C4.61919 19.9734 4.15288 20.1666 3.66665 20.1666C3.18042 20.1666 2.7141 19.9734 2.37028 19.6296C2.02647 19.2858 1.83331 18.8195 1.83331 18.3333C1.83331 17.847 2.02647 17.3807 2.37028 17.0369C2.7141 16.6931 3.18042 16.4999 3.66665 16.4999C4.15288 16.4999 4.61919 16.6931 4.96301 17.0369C5.30683 17.3807 5.49998 17.847 5.49998 18.3333ZM18.3333 20.1666C18.8195 20.1666 19.2859 19.9734 19.6297 19.6296C19.9735 19.2858 20.1666 18.8195 20.1666 18.3333C20.1666 17.847 19.9735 17.3807 19.6297 17.0369C19.2859 16.6931 18.8195 16.4999 18.3333 16.4999C17.8471 16.4999 17.3808 16.6931 17.037 17.0369C16.6931 17.3807 16.5 17.847 16.5 18.3333C16.5 18.8195 16.6931 19.2858 17.037 19.6296C17.3808 19.9734 17.8471 20.1666 18.3333 20.1666Z" stroke="white" stroke-width="2" stroke-linecap="round" stroke-linejoin="round"/>
</g>
<defs>
<clipPath id="clip0_259_21028">
<rect width="22" height="22" fill="white"/>
</clipPath>
</defs>
</svg>
