<svg width="24" height="25" viewBox="0 0 24 25" fill="none" xmlns="http://www.w3.org/2000/svg">
<path d="M21 6.70849C20.8235 6.79992 20.6178 6.8175 20.4283 6.75738C20.2388 6.69726 20.0809 6.56435 19.9894 6.38787C19.2735 4.97364 18.1899 3.77834 16.8525 2.92756C16.7692 2.87499 16.697 2.80651 16.6401 2.72605C16.5832 2.64559 16.5427 2.55471 16.521 2.4586C16.4992 2.36249 16.4966 2.26303 16.5133 2.16591C16.5299 2.06879 16.5656 1.9759 16.6181 1.89256C16.6707 1.80921 16.7392 1.73703 16.8196 1.68014C16.9001 1.62326 16.991 1.58278 17.0871 1.56101C17.1832 1.53925 17.2827 1.53663 17.3798 1.5533C17.4769 1.56997 17.5698 1.60561 17.6531 1.65818C19.2118 2.65618 20.4775 4.05027 21.3206 5.69787C21.4121 5.87442 21.4296 6.08004 21.3695 6.26955C21.3094 6.45906 21.1765 6.61694 21 6.70849ZM3.34783 6.79287C3.48523 6.79281 3.61998 6.75501 3.73736 6.68359C3.85474 6.61217 3.95025 6.50987 4.01346 6.38787C4.72933 4.97364 5.81291 3.77834 7.15033 2.92756C7.31866 2.82139 7.43792 2.6527 7.48187 2.4586C7.52583 2.2645 7.49087 2.06089 7.38471 1.89256C7.27854 1.72423 7.10985 1.60497 6.91575 1.56101C6.72165 1.51706 6.51804 1.55201 6.34971 1.65818C4.79102 2.65618 3.52537 4.05027 2.68221 5.69787C2.62299 5.81217 2.59419 5.93978 2.59858 6.06844C2.60297 6.19709 2.6404 6.32245 2.70726 6.43245C2.77413 6.54244 2.86818 6.63338 2.98037 6.69651C3.09256 6.75963 3.2191 6.79281 3.34783 6.79287ZM20.7947 16.5372C20.9276 16.7651 20.998 17.024 20.9989 17.2877C20.9998 17.5515 20.9312 17.8108 20.7999 18.0396C20.6686 18.2683 20.4793 18.4584 20.251 18.5907C20.0228 18.7229 19.7638 18.7927 19.5 18.7929H15.675C15.5029 19.6406 15.043 20.4027 14.3732 20.9502C13.7035 21.4976 12.865 21.7966 12 21.7966C11.135 21.7966 10.2966 21.4976 9.62682 20.9502C8.95707 20.4027 8.49715 19.6406 8.32502 18.7929H4.50002C4.23641 18.7923 3.9776 18.7224 3.74965 18.59C3.5217 18.4576 3.33266 18.2675 3.20158 18.0388C3.0705 17.8101 3.002 17.5509 3.00299 17.2873C3.00398 17.0236 3.07441 16.765 3.20721 16.5372C4.05189 15.0794 4.50002 13.0066 4.50002 10.5429C4.50002 8.55375 5.29019 6.64609 6.69672 5.23957C8.10324 3.83304 10.0109 3.04287 12 3.04287C13.9891 3.04287 15.8968 3.83304 17.3033 5.23957C18.7098 6.64609 19.5 8.55375 19.5 10.5429C19.5 13.0057 19.9481 15.0785 20.7947 16.5372ZM14.1206 18.7929H9.87939C10.0348 19.2311 10.3221 19.6104 10.7018 19.8786C11.0816 20.1469 11.5351 20.2909 12 20.2909C12.465 20.2909 12.9185 20.1469 13.2982 19.8786C13.6779 19.6104 13.9653 19.2311 14.1206 18.7929ZM19.5 17.2929C18.5025 15.5801 18 13.3094 18 10.5429C18 8.95157 17.3679 7.42545 16.2427 6.30023C15.1174 5.17501 13.5913 4.54287 12 4.54287C10.4087 4.54287 8.8826 5.17501 7.75738 6.30023C6.63216 7.42545 6.00002 8.95157 6.00002 10.5429C6.00002 13.3104 5.49564 15.581 4.50002 17.2929H19.5Z" fill="#9A6323"/>
</svg>
