<svg width="13" height="12" viewBox="0 0 13 12" fill="none" xmlns="http://www.w3.org/2000/svg">
<mask id="mask0_125_2086" style="mask-type:alpha" maskUnits="userSpaceOnUse" x="0" y="0" width="13" height="12">
<rect x="0.5" width="12" height="12" fill="#D9D9D9"/>
</mask>
<g mask="url(#mask0_125_2086)">
<path d="M10.0375 10.95L4.56245 5.4875C4.54578 5.57083 4.5312 5.65417 4.5187 5.7375C4.5062 5.82083 4.49995 5.90833 4.49995 6C4.49995 6.21667 4.5312 6.41667 4.5937 6.6C4.6562 6.78333 4.74162 6.95833 4.84995 7.125C4.93328 7.24167 4.97287 7.36875 4.9687 7.50625C4.96453 7.64375 4.91662 7.75833 4.82495 7.85C4.72495 7.95 4.60412 8.00208 4.46245 8.00625C4.32078 8.01042 4.20828 7.95417 4.12495 7.8375C3.93328 7.57917 3.7812 7.29583 3.6687 6.9875C3.5562 6.67917 3.49995 6.35 3.49995 6C3.49995 5.76667 3.52495 5.54167 3.57495 5.325C3.62495 5.10833 3.69578 4.90417 3.78745 4.7125L3.04995 3.975C2.87495 4.275 2.73953 4.59375 2.6437 4.93125C2.54787 5.26875 2.49995 5.625 2.49995 6C2.49995 6.48333 2.57912 6.93958 2.73745 7.36875C2.89578 7.79792 3.12078 8.1875 3.41245 8.5375C3.50412 8.64583 3.55203 8.76875 3.5562 8.90625C3.56037 9.04375 3.51245 9.1625 3.41245 9.2625C3.31245 9.3625 3.19162 9.4125 3.04995 9.4125C2.90828 9.4125 2.79162 9.35833 2.69995 9.25C2.32495 8.80833 2.0312 8.3125 1.8187 7.7625C1.6062 7.2125 1.49995 6.625 1.49995 6C1.49995 5.48333 1.57078 4.99583 1.71245 4.5375C1.85412 4.07917 2.05828 3.65 2.32495 3.25L1.53745 2.4625C1.43745 2.3625 1.38745 2.24375 1.38745 2.10625C1.38745 1.96875 1.43745 1.85 1.53745 1.75C1.63745 1.65 1.7562 1.6 1.8937 1.6C2.0312 1.6 2.14995 1.65 2.24995 1.75L10.75 10.25C10.85 10.35 10.9 10.4667 10.9 10.6C10.9 10.7333 10.85 10.85 10.75 10.95C10.65 11.05 10.5312 11.1 10.3937 11.1C10.2562 11.1 10.1375 11.05 10.0375 10.95ZM10.5 6C10.5 5.46667 10.3979 4.95625 10.1937 4.46875C9.98954 3.98125 9.69995 3.55 9.32495 3.175C8.94995 2.8 8.5187 2.51042 8.0312 2.30625C7.5437 2.10208 7.03329 2 6.49995 2C6.18329 2 5.8687 2.03333 5.5562 2.1C5.2437 2.16667 4.95412 2.28333 4.68745 2.45C4.57078 2.525 4.44162 2.54375 4.29995 2.50625C4.15828 2.46875 4.04995 2.39167 3.97495 2.275C3.89995 2.15833 3.87912 2.03333 3.91245 1.9C3.94578 1.76667 4.02078 1.66667 4.13745 1.6C4.50412 1.40833 4.88537 1.26042 5.2812 1.15625C5.67703 1.05208 6.08329 1 6.49995 1C7.16662 1 7.80412 1.125 8.41245 1.375C9.02079 1.625 9.56245 1.9875 10.0375 2.4625C10.5125 2.9375 10.875 3.47917 11.125 4.0875C11.375 4.69583 11.5 5.33333 11.5 6C11.5 6.40833 11.45 6.81042 11.35 7.20625C11.25 7.60208 11.1041 7.98333 10.9125 8.35C10.8458 8.46667 10.7479 8.53958 10.6187 8.56875C10.4895 8.59792 10.3666 8.57917 10.25 8.5125C10.1333 8.44583 10.0562 8.34583 10.0187 8.2125C9.9812 8.07917 9.99579 7.95 10.0625 7.825C10.2125 7.54167 10.3229 7.24583 10.3937 6.9375C10.4645 6.62917 10.5 6.31667 10.5 6ZM7.91245 4.5875C7.72079 4.39583 7.50412 4.25 7.26245 4.15C7.02079 4.05 6.76662 4 6.49995 4C6.40829 4 6.32079 4.00625 6.23745 4.01875C6.15412 4.03125 6.07079 4.04583 5.98745 4.0625C5.84579 4.09583 5.7187 4.07708 5.6062 4.00625C5.4937 3.93542 5.42078 3.82917 5.38745 3.6875C5.35412 3.54583 5.37287 3.41875 5.4437 3.30625C5.51453 3.19375 5.62079 3.12083 5.76245 3.0875C5.87912 3.05417 5.99995 3.03125 6.12495 3.01875C6.24995 3.00625 6.37495 3 6.49995 3C6.89995 3 7.28329 3.075 7.64995 3.225C8.01662 3.375 8.34162 3.59167 8.62495 3.875C8.90829 4.15833 9.12495 4.48333 9.27495 4.85C9.42495 5.21667 9.49995 5.6 9.49995 6C9.49995 6.125 9.4937 6.25 9.4812 6.375C9.4687 6.5 9.44579 6.62083 9.41245 6.7375C9.37912 6.87917 9.3062 6.98542 9.1937 7.05625C9.0812 7.12708 8.95412 7.14583 8.81245 7.1125C8.67079 7.07917 8.56454 7.00625 8.4937 6.89375C8.42287 6.78125 8.40412 6.65417 8.43745 6.5125C8.45412 6.42917 8.4687 6.34583 8.4812 6.2625C8.4937 6.17917 8.49995 6.09167 8.49995 6C8.49995 5.73333 8.44995 5.47917 8.34995 5.2375C8.24995 4.99583 8.10412 4.77917 7.91245 4.5875Z" fill="#393939"/>
</g>
</svg>
