<svg width="24" height="25" viewBox="0 0 24 25" fill="none" xmlns="http://www.w3.org/2000/svg">
<path d="M7.829 16.2133C5.67841 14.0585 4.02452 11.4599 2.983 8.59926C2.41 7.03526 2.935 5.31726 4.113 4.13926L4.842 3.41126C5.03799 3.21488 5.27078 3.05907 5.52705 2.95277C5.78333 2.84647 6.05805 2.79175 6.3355 2.79175C6.61295 2.79175 6.88767 2.84647 7.14394 2.95277C7.40022 3.05907 7.63301 3.21488 7.829 3.41126L9.536 5.11826C9.73238 5.31425 9.88818 5.54704 9.99449 5.80331C10.1008 6.05959 10.1555 6.33431 10.1555 6.61176C10.1555 6.88921 10.1008 7.16393 9.99449 7.4202C9.88818 7.67648 9.73238 7.90927 9.536 8.10526L9.116 8.52526C8.94788 8.69334 8.81453 8.89289 8.72354 9.11251C8.63255 9.33214 8.58573 9.56753 8.58573 9.80526C8.58573 10.043 8.63255 10.2784 8.72354 10.498C8.81453 10.7176 8.94788 10.9172 9.116 11.0853L12.956 14.9263C13.1241 15.0944 13.3236 15.2277 13.5433 15.3187C13.7629 15.4097 13.9983 15.4565 14.236 15.4565C14.4737 15.4565 14.7091 15.4097 14.9287 15.3187C15.1484 15.2277 15.3479 15.0944 15.516 14.9263L15.937 14.5063C16.133 14.3099 16.3658 14.1541 16.6221 14.0478C16.8783 13.9415 17.1531 13.8867 17.4305 13.8867C17.7079 13.8867 17.9827 13.9415 18.2389 14.0478C18.4952 14.1541 18.728 14.3099 18.924 14.5063L20.631 16.2133C20.8274 16.4092 20.9832 16.642 21.0895 16.8983C21.1958 17.1546 21.2505 17.4293 21.2505 17.7068C21.2505 17.9842 21.1958 18.2589 21.0895 18.5152C20.9832 18.7715 20.8274 19.0043 20.631 19.2003L19.903 19.9283C18.725 21.1073 17.007 21.6323 15.443 21.0593C12.5823 20.0177 9.98377 18.3639 7.829 16.2133Z" stroke="#9A6323" stroke-width="1.5" stroke-linejoin="round"/>
</svg>
