<svg width="24" height="25" viewBox="0 0 24 25" fill="none" xmlns="http://www.w3.org/2000/svg">
<g clip-path="url(#clip0_259_20851)">
<path d="M19.5 7.58105H16.5V5.33105C16.5 4.13758 16.0259 2.99299 15.182 2.14907C14.3381 1.30516 13.1935 0.831055 12 0.831055C10.8065 0.831055 9.66193 1.30516 8.81802 2.14907C7.97411 2.99299 7.5 4.13758 7.5 5.33105V7.58105H4.5C4.10218 7.58105 3.72064 7.73909 3.43934 8.02039C3.15804 8.3017 3 8.68323 3 9.08105V19.5811C3 19.9789 3.15804 20.3604 3.43934 20.6417C3.72064 20.923 4.10218 21.0811 4.5 21.0811H19.5C19.8978 21.0811 20.2794 20.923 20.5607 20.6417C20.842 20.3604 21 19.9789 21 19.5811V9.08105C21 8.68323 20.842 8.3017 20.5607 8.02039C20.2794 7.73909 19.8978 7.58105 19.5 7.58105ZM9 5.33105C9 4.53541 9.31607 3.77234 9.87868 3.20973C10.4413 2.64713 11.2044 2.33105 12 2.33105C12.7956 2.33105 13.5587 2.64713 14.1213 3.20973C14.6839 3.77234 15 4.53541 15 5.33105V7.58105H9V5.33105ZM19.5 19.5811H4.5V9.08105H19.5V19.5811ZM13.125 14.3311C13.125 14.5536 13.059 14.7711 12.9354 14.9561C12.8118 15.1411 12.6361 15.2853 12.4305 15.3704C12.225 15.4556 11.9988 15.4778 11.7805 15.4344C11.5623 15.391 11.3618 15.2839 11.2045 15.1265C11.0472 14.9692 10.94 14.7688 10.8966 14.5505C10.8532 14.3323 10.8755 14.1061 10.9606 13.9005C11.0458 13.695 11.19 13.5193 11.375 13.3957C11.56 13.272 11.7775 13.2061 12 13.2061C12.2984 13.2061 12.5845 13.3246 12.7955 13.5356C13.0065 13.7465 13.125 14.0327 13.125 14.3311Z" fill="#9A6323"/>
</g>
<defs>
<clipPath id="clip0_259_20851">
<rect width="24" height="24" fill="white" transform="translate(0 0.0810547)"/>
</clipPath>
</defs>
</svg>
