<svg width="13" height="12" viewBox="0 0 13 12" fill="none" xmlns="http://www.w3.org/2000/svg">
<mask id="mask0_125_2092" style="mask-type:alpha" maskUnits="userSpaceOnUse" x="0" y="0" width="13" height="12">
<rect x="0.5" width="12" height="12" fill="#D9D9D9"/>
</mask>
<g mask="url(#mask0_125_2092)">
<path d="M5.725 7.75C5.925 7.95 6.18333 8.04792 6.5 8.04375C6.81667 8.03958 7.05 7.925 7.2 7.7L9.3125 4.5375C9.3875 4.42083 9.37708 4.31458 9.28125 4.21875C9.18542 4.12292 9.07917 4.1125 8.9625 4.1875L5.8 6.3C5.575 6.45 5.45625 6.67917 5.44375 6.9875C5.43125 7.29583 5.525 7.55 5.725 7.75ZM6.5 2C6.8 2 7.09583 2.025 7.3875 2.075C7.67917 2.125 7.9625 2.20417 8.2375 2.3125C8.37083 2.3625 8.5125 2.45625 8.6625 2.59375C8.8125 2.73125 8.85417 2.8625 8.7875 2.9875C8.72083 3.1125 8.57083 3.19583 8.3375 3.2375C8.10417 3.27917 7.91667 3.275 7.775 3.225C7.56667 3.15 7.35625 3.09375 7.14375 3.05625C6.93125 3.01875 6.71667 3 6.5 3C5.39167 3 4.44792 3.38958 3.66875 4.16875C2.88958 4.94792 2.5 5.89167 2.5 7C2.5 7.35 2.54792 7.69583 2.64375 8.0375C2.73958 8.37917 2.875 8.7 3.05 9H9.95C10.1417 8.68333 10.2813 8.35417 10.3688 8.0125C10.4563 7.67083 10.5 7.31667 10.5 6.95C10.5 6.73333 10.4813 6.52083 10.4438 6.3125C10.4062 6.10417 10.35 5.9 10.275 5.7C10.225 5.55833 10.2167 5.42083 10.25 5.2875C10.2833 5.15417 10.3583 5.04167 10.475 4.95C10.5833 4.86667 10.7021 4.84167 10.8313 4.875C10.9604 4.90833 11.05 4.98333 11.1 5.1C11.225 5.39167 11.3208 5.68958 11.3875 5.99375C11.4542 6.29792 11.4917 6.60833 11.5 6.925C11.5083 7.4 11.4542 7.85417 11.3375 8.2875C11.2208 8.72083 11.05 9.13333 10.825 9.525C10.7333 9.675 10.6083 9.79167 10.45 9.875C10.2917 9.95833 10.125 10 9.95 10H3.05C2.875 10 2.70833 9.95833 2.55 9.875C2.39167 9.79167 2.26667 9.675 2.175 9.525C1.95833 9.15 1.79167 8.75208 1.675 8.33125C1.55833 7.91042 1.5 7.46667 1.5 7C1.5 6.30833 1.63125 5.66042 1.89375 5.05625C2.15625 4.45208 2.51458 3.92292 2.96875 3.46875C3.42292 3.01458 3.95417 2.65625 4.5625 2.39375C5.17083 2.13125 5.81667 2 6.5 2Z" fill="#393939"/>
</g>
</svg>
