<svg width="24" height="25" viewBox="0 0 24 25" fill="none" xmlns="http://www.w3.org/2000/svg">
<path d="M12 2.75757C10.0716 2.75757 8.18657 3.3294 6.58319 4.40074C4.97982 5.47208 3.73013 6.99482 2.99218 8.7764C2.25422 10.558 2.06114 12.5184 2.43735 14.4097C2.81355 16.301 3.74215 18.0383 5.10571 19.4019C6.46928 20.7654 8.20656 21.694 10.0979 22.0702C11.9892 22.4464 13.9496 22.2533 15.7312 21.5154C17.5127 20.7774 19.0355 19.5278 20.1068 17.9244C21.1782 16.321 21.75 14.4359 21.75 12.5076C21.7473 9.92255 20.7192 7.44418 18.8913 5.61629C17.0634 3.7884 14.585 2.7603 12 2.75757ZM12 20.7576C10.3683 20.7576 8.77326 20.2737 7.41655 19.3672C6.05984 18.4607 5.00242 17.1722 4.378 15.6647C3.75358 14.1572 3.5902 12.4984 3.90853 10.8981C4.22685 9.29773 5.01259 7.82772 6.16637 6.67394C7.32016 5.52015 8.79017 4.73442 10.3905 4.41609C11.9909 4.09776 13.6497 4.26114 15.1571 4.88556C16.6646 5.50999 17.9531 6.56741 18.8596 7.92411C19.7661 9.28082 20.25 10.8759 20.25 12.5076C20.2475 14.6948 19.3775 16.7918 17.8309 18.3385C16.2843 19.8851 14.1873 20.7551 12 20.7576ZM13.5 17.0076C13.5 17.2065 13.421 17.3972 13.2803 17.5379C13.1397 17.6786 12.9489 17.7576 12.75 17.7576C12.3522 17.7576 11.9706 17.5995 11.6893 17.3182C11.408 17.0369 11.25 16.6554 11.25 16.2576V12.5076C11.0511 12.5076 10.8603 12.4286 10.7197 12.2879C10.579 12.1472 10.5 11.9565 10.5 11.7576C10.5 11.5587 10.579 11.3679 10.7197 11.2272C10.8603 11.0866 11.0511 11.0076 11.25 11.0076C11.6478 11.0076 12.0294 11.1656 12.3107 11.4469C12.592 11.7282 12.75 12.1097 12.75 12.5076V16.2576C12.9489 16.2576 13.1397 16.3366 13.2803 16.4772C13.421 16.6179 13.5 16.8087 13.5 17.0076ZM10.5 8.38257C10.5 8.16006 10.566 7.94256 10.6896 7.75755C10.8132 7.57255 10.9889 7.42835 11.1945 7.3432C11.4001 7.25806 11.6263 7.23578 11.8445 7.27918C12.0627 7.32259 12.2632 7.42974 12.4205 7.58707C12.5778 7.74441 12.685 7.94486 12.7284 8.16309C12.7718 8.38132 12.7495 8.60752 12.6644 8.81309C12.5792 9.01865 12.435 9.19436 12.25 9.31797C12.065 9.44159 11.8475 9.50757 11.625 9.50757C11.3266 9.50757 11.0405 9.38904 10.8295 9.17806C10.6185 8.96709 10.5 8.68094 10.5 8.38257Z" fill="#9A6323"/>
</svg>
