<svg width="31" height="30" viewBox="0 0 31 30" fill="none" xmlns="http://www.w3.org/2000/svg">
<path fill-rule="evenodd" clip-rule="evenodd" d="M15.3887 0C7.0973 0 0.352905 6.7283 0.352905 14.9999C0.352905 18.2803 1.41364 21.3225 3.2168 23.7918L1.34279 29.3649L7.12374 27.5222C9.50143 29.0919 12.3389 30 15.3974 30C23.6887 30 30.4331 23.2715 30.4331 15.0001C30.4331 6.72856 23.6887 0.000247955 15.3974 0.000247955L15.3887 0ZM11.1898 7.61927C10.8982 6.92267 10.6772 6.89629 10.2354 6.87838C10.0849 6.86967 9.91729 6.86096 9.73144 6.86096C9.15666 6.86096 8.5557 7.02845 8.19322 7.39878C7.75141 7.84849 6.65523 8.89774 6.65523 11.0495C6.65523 13.2013 8.22864 15.2823 8.44069 15.5735C8.66172 15.8642 11.5081 20.3439 15.9277 22.1697C19.3839 23.5982 20.4095 23.4658 21.196 23.2983C22.3451 23.0514 23.786 22.2045 24.1485 21.1819C24.511 20.1588 24.511 19.2857 24.4047 19.1006C24.2987 18.9154 24.0068 18.8099 23.565 18.5891C23.1232 18.3686 20.975 17.3104 20.5684 17.1693C20.1705 17.0195 19.7905 17.0725 19.4902 17.4958C19.0658 18.0866 18.6505 18.6864 18.3144 19.0478C18.0492 19.33 17.6159 19.3654 17.2537 19.2153C16.7675 19.0127 15.4064 18.5361 13.7267 17.0459C12.4272 15.8908 11.5433 14.4536 11.2871 14.0215C11.0307 13.5808 11.2607 13.3247 11.4637 13.0868C11.6848 12.8133 11.8968 12.6194 12.1179 12.3635C12.3389 12.108 12.4626 11.9756 12.6041 11.6757C12.7545 11.3847 12.6482 11.0848 12.5422 10.8643C12.4362 10.6438 11.5523 8.49207 11.1898 7.61927Z" fill="white"/>
</svg>
